<svg xmlns="http://www.w3.org/2000/svg" width="1300" height="150" viewBox="0 0 1300 150">
  <rect width="1300" height="150" fill="#ffffff"/>
  <circle cx="429.4" cy="31.7" r="3.3" fill="#a6aebb" opacity="0.47"/>
  <circle cx="1052.2" cy="38.7" r="4.2" fill="#0e93b3" opacity="0.91"/>
  <circle cx="481.8" cy="52.0" r="3.4" fill="#a1adbb" opacity="0.51"/>
  <circle cx="131.6" cy="64.5" r="3.2" fill="#a7aebb" opacity="0.42"/>
  <circle cx="111.5" cy="28.7" r="3.2" fill="#a7aebb" opacity="0.42"/>
  <circle cx="731.9" cy="36.5" r="3.8" fill="#5ea1b7" opacity="0.71"/>
  <circle cx="813.5" cy="125.0" r="3.9" fill="#9473cd" opacity="0.77"/>
  <circle cx="520.6" cy="28.5" r="3.4" fill="#9aacba" opacity="0.53"/>
  <circle cx="82.3" cy="34.1" r="3.2" fill="#a7aebb" opacity="0.42"/>
  <circle cx="171.5" cy="90.2" r="3.2" fill="#a7aebb" opacity="0.42"/>
  <circle cx="725.4" cy="119.8" r="3.8" fill="#9a84c7" opacity="0.70"/>
  <circle cx="823.9" cy="87.0" r="3.9" fill="#c3a13d" opacity="0.78"/>
  <circle cx="146.0" cy="121.1" r="3.2" fill="#a7aebb" opacity="0.42"/>
  <circle cx="281.9" cy="115.8" r="3.2" fill="#a7aebb" opacity="0.42"/>
  <circle cx="689.7" cy="40.5" r="3.7" fill="#b7a673" opacity="0.67"/>
  <circle cx="476.7" cy="49.7" r="3.4" fill="#a2adbb" opacity="0.50"/>
  <circle cx="1018.6" cy="112.3" r="4.2" fill="#8b56d5" opacity="0.90"/>
  <circle cx="399.9" cy="64.4" r="3.3" fill="#a7aebb" opacity="0.46"/>
  <circle cx="1119.7" cy="107.9" r="4.2" fill="#8a53d6" opacity="0.92"/>
  <circle cx="115.6" cy="124.2" r="3.2" fill="#a7aebb" opacity="0.42"/>
  <circle cx="547.5" cy="89.4" r="3.5" fill="#acaca5" opacity="0.55"/>
  <circle cx="73.1" cy="138.7" r="3.2" fill="#a7aebb" opacity="0.42"/>
  <circle cx="121.2" cy="60.4" r="3.2" fill="#a7aebb" opacity="0.42"/>
  <circle cx="416.8" cy="88.7" r="3.3" fill="#a7aebb" opacity="0.47"/>
  <circle cx="462.4" cy="51.3" r="3.3" fill="#a8aeb7" opacity="0.49"/>
  <circle cx="1075.6" cy="73.2" r="4.2" fill="#d09a00" opacity="0.92"/>
  <circle cx="617.6" cy="139.7" r="3.6" fill="#a098c1" opacity="0.61"/>
  <circle cx="411.6" cy="128.7" r="3.3" fill="#a7aebb" opacity="0.47"/>
  <circle cx="1267.4" cy="74.3" r="4.2" fill="#d09a00" opacity="0.92"/>
  <circle cx="861.2" cy="46.3" r="4.0" fill="#349ab5" opacity="0.81"/>
  <circle cx="1201.7" cy="75.8" r="4.2" fill="#d09a00" opacity="0.92"/>
  <circle cx="97.8" cy="87.2" r="3.2" fill="#a7aebb" opacity="0.42"/>
  <circle cx="185.9" cy="10.0" r="3.2" fill="#a7aebb" opacity="0.42"/>
  <circle cx="645.6" cy="61.3" r="3.6" fill="#7aa6b9" opacity="0.63"/>
  <circle cx="586.4" cy="110.1" r="3.5" fill="#a29ec0" opacity="0.58"/>
  <circle cx="563.0" cy="123.2" r="3.5" fill="#a3a1bf" opacity="0.57"/>
  <circle cx="372.6" cy="115.5" r="3.3" fill="#a7aebb" opacity="0.45"/>
  <circle cx="500.3" cy="35.0" r="3.4" fill="#9eacbb" opacity="0.52"/>
  <circle cx="213.0" cy="62.0" r="3.2" fill="#a7aebb" opacity="0.42"/>
  <circle cx="39.1" cy="140.0" r="3.2" fill="#a7aebb" opacity="0.42"/>
  <circle cx="252.3" cy="104.4" r="3.2" fill="#a7aebb" opacity="0.42"/>
  <circle cx="486.3" cy="112.6" r="3.4" fill="#a6aabc" opacity="0.51"/>
  <circle cx="422.9" cy="26.7" r="3.3" fill="#a6aebb" opacity="0.47"/>
  <circle cx="797.2" cy="99.6" r="3.9" fill="#9576cc" opacity="0.76"/>
  <circle cx="950.2" cy="83.1" r="4.1" fill="#cc9c14" opacity="0.87"/>
  <circle cx="1118.9" cy="108.7" r="4.2" fill="#8a53d6" opacity="0.92"/>
  <circle cx="515.3" cy="54.6" r="3.4" fill="#aaacad" opacity="0.53"/>
  <circle cx="525.4" cy="53.8" r="3.4" fill="#99acba" opacity="0.54"/>
  <circle cx="108.3" cy="25.3" r="3.2" fill="#a7aebb" opacity="0.42"/>
  <circle cx="776.1" cy="40.1" r="3.8" fill="#4f9fb6" opacity="0.74"/>
  <circle cx="24.3" cy="10.0" r="3.2" fill="#a7aebb" opacity="0.42"/>
  <circle cx="792.4" cy="31.7" r="3.9" fill="#4a9eb6" opacity="0.76"/>
  <circle cx="1118.7" cy="108.8" r="4.2" fill="#8a53d6" opacity="0.92"/>
  <circle cx="1220.2" cy="115.2" r="4.2" fill="#8a53d6" opacity="0.92"/>
  <circle cx="479.9" cy="58.7" r="3.4" fill="#a1adbb" opacity="0.51"/>
  <circle cx="1248.2" cy="77.4" r="4.2" fill="#d09a00" opacity="0.92"/>
  <circle cx="629.8" cy="56.6" r="3.6" fill="#7fa7b9" opacity="0.62"/>
  <circle cx="950.9" cy="82.6" r="4.1" fill="#cc9c13" opacity="0.87"/>
  <circle cx="1061.7" cy="35.6" r="4.2" fill="#0e93b3" opacity="0.91"/>
  <circle cx="1215.9" cy="74.8" r="4.2" fill="#d09a00" opacity="0.92"/>
  <circle cx="207.5" cy="140.0" r="3.2" fill="#a7aebb" opacity="0.42"/>
  <circle cx="397.2" cy="89.2" r="3.3" fill="#a7aebb" opacity="0.46"/>
  <circle cx="1104.9" cy="114.2" r="4.2" fill="#8a53d6" opacity="0.92"/>
  <circle cx="1161.1" cy="71.8" r="4.2" fill="#d09a00" opacity="0.92"/>
  <circle cx="990.5" cy="106.5" r="4.1" fill="#8c58d5" opacity="0.89"/>
  <circle cx="820.8" cy="108.9" r="3.9" fill="#9472cd" opacity="0.78"/>
  <circle cx="1040.0" cy="40.5" r="4.2" fill="#0f93b3" opacity="0.91"/>
  <circle cx="950.3" cy="28.0" r="4.1" fill="#1d96b4" opacity="0.87"/>
  <circle cx="274.3" cy="70.8" r="3.2" fill="#a7aebb" opacity="0.42"/>
  <circle cx="59.0" cy="80.4" r="3.2" fill="#a7aebb" opacity="0.42"/>
  <circle cx="615.2" cy="21.4" r="3.6" fill="#83a8b9" opacity="0.61"/>
  <circle cx="583.9" cy="65.1" r="3.5" fill="#a29ec0" opacity="0.58"/>
  <circle cx="1261.0" cy="76.3" r="4.2" fill="#d09a00" opacity="0.92"/>
  <circle cx="612.5" cy="79.2" r="3.6" fill="#b0a990" opacity="0.61"/>
  <circle cx="279.9" cy="140.0" r="3.2" fill="#a7aebb" opacity="0.42"/>
  <circle cx="26.4" cy="108.4" r="3.2" fill="#a7aebb" opacity="0.42"/>
  <circle cx="454.7" cy="140.0" r="3.3" fill="#a6acbb" opacity="0.49"/>
  <circle cx="1163.0" cy="114.4" r="4.2" fill="#8a53d6" opacity="0.92"/>
  <circle cx="963.2" cy="79.5" r="4.1" fill="#cc9c10" opacity="0.87"/>
  <circle cx="820.1" cy="31.0" r="3.9" fill="#419cb6" opacity="0.78"/>
  <circle cx="1026.6" cy="108.7" r="4.2" fill="#8b55d5" opacity="0.90"/>
  <circle cx="1209.4" cy="114.0" r="4.2" fill="#8a53d6" opacity="0.92"/>
  <circle cx="222.9" cy="75.1" r="3.2" fill="#a7aebb" opacity="0.42"/>
  <circle cx="606.6" cy="116.4" r="3.6" fill="#a19ac1" opacity="0.60"/>
  <circle cx="207.0" cy="140.0" r="3.2" fill="#a7aebb" opacity="0.42"/>
  <circle cx="462.7" cy="107.6" r="3.3" fill="#a6acbc" opacity="0.49"/>
  <circle cx="710.5" cy="76.9" r="3.7" fill="#65a2b8" opacity="0.69"/>
  <circle cx="837.4" cy="114.3" r="3.9" fill="#936ece" opacity="0.79"/>
  <circle cx="962.4" cy="27.9" r="4.1" fill="#1b95b4" opacity="0.87"/>
  <circle cx="1058.3" cy="40.9" r="4.2" fill="#0e93b3" opacity="0.91"/>
  <circle cx="59.0" cy="32.4" r="3.2" fill="#a7aebb" opacity="0.42"/>
  <circle cx="758.2" cy="84.1" r="3.8" fill="#bda358" opacity="0.73"/>
  <circle cx="705.5" cy="60.7" r="3.7" fill="#67a3b8" opacity="0.69"/>
  <circle cx="1147.9" cy="113.9" r="4.2" fill="#8a53d6" opacity="0.92"/>
  <circle cx="754.4" cy="86.8" r="3.8" fill="#987ec9" opacity="0.73"/>
  <circle cx="652.1" cy="130.4" r="3.6" fill="#9e92c3" opacity="0.64"/>
  <circle cx="214.1" cy="140.0" r="3.2" fill="#a7aebb" opacity="0.42"/>
  <circle cx="253.3" cy="41.6" r="3.2" fill="#a7aebb" opacity="0.42"/>
  <circle cx="995.6" cy="40.5" r="4.1" fill="#1594b3" opacity="0.89"/>
  <circle cx="931.9" cy="118.3" r="4.1" fill="#8e5fd2" opacity="0.86"/>
  <circle cx="101.3" cy="76.4" r="3.2" fill="#a7aebb" opacity="0.42"/>
  <circle cx="1005.9" cy="37.3" r="4.1" fill="#1394b3" opacity="0.89"/>
  <circle cx="1129.8" cy="38.0" r="4.2" fill="#0d93b3" opacity="0.92"/>
  <circle cx="990.9" cy="115.8" r="4.1" fill="#8c58d5" opacity="0.89"/>
  <circle cx="590.1" cy="40.7" r="3.5" fill="#8aa9ba" opacity="0.59"/>
  <circle cx="578.9" cy="67.4" r="3.5" fill="#a29fc0" opacity="0.58"/>
  <circle cx="1242.6" cy="107.1" r="4.2" fill="#8a53d6" opacity="0.92"/>
  <circle cx="590.3" cy="109.7" r="3.5" fill="#a29dc0" opacity="0.59"/>
  <circle cx="1034.8" cy="117.7" r="4.2" fill="#8a55d6" opacity="0.90"/>
  <circle cx="1121.4" cy="73.2" r="4.2" fill="#d09a00" opacity="0.92"/>
  <circle cx="1179.3" cy="38.9" r="4.2" fill="#0d93b3" opacity="0.92"/>
  <circle cx="176.3" cy="62.1" r="3.2" fill="#a7aebb" opacity="0.42"/>
  <circle cx="419.6" cy="112.6" r="3.3" fill="#a7aebb" opacity="0.47"/>
  <circle cx="862.2" cy="41.3" r="4.0" fill="#349ab5" opacity="0.81"/>
  <circle cx="1147.1" cy="42.2" r="4.2" fill="#0d93b3" opacity="0.92"/>
  <circle cx="482.5" cy="62.3" r="3.4" fill="#a9adb4" opacity="0.51"/>
  <circle cx="1129.3" cy="76.5" r="4.2" fill="#d09a00" opacity="0.92"/>
  <circle cx="522.6" cy="129.3" r="3.4" fill="#aaacab" opacity="0.54"/>
  <circle cx="227.8" cy="120.3" r="3.2" fill="#a7aebb" opacity="0.42"/>
  <circle cx="564.3" cy="101.3" r="3.5" fill="#a3a1bf" opacity="0.57"/>
  <circle cx="529.6" cy="81.5" r="3.4" fill="#abacaa" opacity="0.54"/>
  <circle cx="928.1" cy="43.3" r="4.1" fill="#2297b4" opacity="0.86"/>
  <circle cx="447.2" cy="70.6" r="3.3" fill="#a8aeb8" opacity="0.48"/>
  <circle cx="439.0" cy="113.8" r="3.3" fill="#a7adbb" opacity="0.48"/>
  <circle cx="393.9" cy="82.8" r="3.3" fill="#a7aebb" opacity="0.46"/>
  <circle cx="310.1" cy="78.6" r="3.2" fill="#a7aebb" opacity="0.43"/>
  <circle cx="129.2" cy="122.5" r="3.2" fill="#a7aebb" opacity="0.42"/>
  <circle cx="362.6" cy="49.6" r="3.2" fill="#a7aebb" opacity="0.44"/>
  <circle cx="1050.4" cy="113.2" r="4.2" fill="#8a54d6" opacity="0.91"/>
  <circle cx="211.0" cy="92.2" r="3.2" fill="#a7aebb" opacity="0.42"/>
  <circle cx="738.4" cy="106.9" r="3.8" fill="#9982c8" opacity="0.71"/>
  <circle cx="1025.1" cy="40.9" r="4.2" fill="#1194b3" opacity="0.90"/>
  <circle cx="556.5" cy="37.5" r="3.5" fill="#93aaba" opacity="0.56"/>
  <circle cx="134.9" cy="80.2" r="3.2" fill="#a7aebb" opacity="0.42"/>
  <circle cx="128.8" cy="89.3" r="3.2" fill="#a7aebb" opacity="0.42"/>
  <circle cx="592.1" cy="91.0" r="3.5" fill="#afaa97" opacity="0.59"/>
  <circle cx="1268.9" cy="77.3" r="4.2" fill="#d09a00" opacity="0.92"/>
  <circle cx="185.8" cy="102.1" r="3.2" fill="#a7aebb" opacity="0.42"/>
  <circle cx="912.3" cy="43.3" r="4.1" fill="#2697b4" opacity="0.85"/>
  <circle cx="250.8" cy="70.8" r="3.2" fill="#a7aebb" opacity="0.42"/>
  <circle cx="811.1" cy="112.5" r="3.9" fill="#9473cc" opacity="0.77"/>
  <circle cx="650.1" cy="23.7" r="3.6" fill="#79a6b9" opacity="0.64"/>
  <circle cx="362.7" cy="45.4" r="3.2" fill="#a7aebb" opacity="0.44"/>
  <circle cx="47.1" cy="111.7" r="3.2" fill="#a7aebb" opacity="0.42"/>
  <circle cx="713.9" cy="27.1" r="3.7" fill="#64a2b8" opacity="0.69"/>
  <circle cx="583.7" cy="110.7" r="3.5" fill="#a29ec0" opacity="0.58"/>
  <circle cx="1049.3" cy="72.4" r="4.2" fill="#d09a02" opacity="0.91"/>
  <circle cx="1136.7" cy="108.7" r="4.2" fill="#8a53d6" opacity="0.92"/>
  <circle cx="409.3" cy="61.7" r="3.3" fill="#a7aebb" opacity="0.46"/>
  <circle cx="1066.0" cy="111.6" r="4.2" fill="#8a53d6" opacity="0.91"/>
  <circle cx="936.5" cy="33.3" r="4.1" fill="#2096b4" opacity="0.86"/>
  <circle cx="92.1" cy="52.7" r="3.2" fill="#a7aebb" opacity="0.42"/>
  <circle cx="41.8" cy="110.8" r="3.2" fill="#a7aebb" opacity="0.42"/>
  <circle cx="228.4" cy="16.4" r="3.2" fill="#a7aebb" opacity="0.42"/>
  <circle cx="856.9" cy="84.0" r="4.0" fill="#c59f31" opacity="0.81"/>
  <circle cx="377.0" cy="10.0" r="3.3" fill="#a7aebb" opacity="0.45"/>
  <circle cx="891.2" cy="33.7" r="4.0" fill="#2c98b5" opacity="0.83"/>
  <circle cx="582.2" cy="78.0" r="3.5" fill="#aeab9b" opacity="0.58"/>
  <circle cx="479.9" cy="104.6" r="3.4" fill="#a9adb4" opacity="0.51"/>
  <circle cx="330.0" cy="69.1" r="3.2" fill="#a7aebb" opacity="0.43"/>
  <circle cx="296.8" cy="65.4" r="3.2" fill="#a7aebb" opacity="0.42"/>
  <circle cx="618.3" cy="112.1" r="3.6" fill="#a098c1" opacity="0.61"/>
  <circle cx="845.3" cy="37.1" r="4.0" fill="#399bb5" opacity="0.80"/>
  <circle cx="354.7" cy="37.9" r="3.2" fill="#a7aebb" opacity="0.44"/>
  <circle cx="204.1" cy="117.8" r="3.2" fill="#a7aebb" opacity="0.42"/>
  <circle cx="404.9" cy="39.4" r="3.3" fill="#a7aebb" opacity="0.46"/>
  <circle cx="129.8" cy="121.9" r="3.2" fill="#a7aebb" opacity="0.42"/>
  <circle cx="1141.8" cy="110.5" r="4.2" fill="#8a53d6" opacity="0.92"/>
  <circle cx="511.7" cy="70.1" r="3.4" fill="#aaadae" opacity="0.53"/>
  <circle cx="379.8" cy="81.4" r="3.3" fill="#a7aebb" opacity="0.45"/>
  <circle cx="829.3" cy="45.1" r="3.9" fill="#3e9cb6" opacity="0.79"/>
  <circle cx="666.3" cy="51.6" r="3.7" fill="#b5a77d" opacity="0.65"/>
  <circle cx="942.8" cy="116.7" r="4.1" fill="#8d5dd3" opacity="0.86"/>
  <circle cx="655.5" cy="53.9" r="3.6" fill="#77a6b9" opacity="0.64"/>
  <circle cx="1058.7" cy="113.7" r="4.2" fill="#8a53d6" opacity="0.91"/>
  <circle cx="1221.0" cy="107.2" r="4.2" fill="#8a53d6" opacity="0.92"/>
  <circle cx="311.9" cy="76.2" r="3.2" fill="#a7aebb" opacity="0.43"/>
  <circle cx="1225.3" cy="76.2" r="4.2" fill="#d09a00" opacity="0.92"/>
  <circle cx="1070.4" cy="112.6" r="4.2" fill="#8a53d6" opacity="0.91"/>
  <circle cx="689.4" cy="39.0" r="3.7" fill="#6ca4b8" opacity="0.67"/>
  <circle cx="636.6" cy="31.4" r="3.6" fill="#7da7b9" opacity="0.63"/>
  <circle cx="1191.5" cy="112.3" r="4.2" fill="#8a53d6" opacity="0.92"/>
  <circle cx="139.1" cy="140.0" r="3.2" fill="#a7aebb" opacity="0.42"/>
  <circle cx="339.7" cy="56.1" r="3.2" fill="#a7aebb" opacity="0.43"/>
  <circle cx="1083.4" cy="37.7" r="4.2" fill="#0d93b3" opacity="0.92"/>
  <circle cx="950.3" cy="71.1" r="4.1" fill="#cc9c14" opacity="0.87"/>
  <circle cx="642.4" cy="109.3" r="3.6" fill="#b3a886" opacity="0.63"/>
  <circle cx="383.7" cy="65.1" r="3.3" fill="#a7aebb" opacity="0.45"/>
  <circle cx="796.5" cy="116.8" r="3.9" fill="#9576cc" opacity="0.76"/>
  <circle cx="439.4" cy="140.0" r="3.3" fill="#a7adbb" opacity="0.48"/>
  <circle cx="954.5" cy="72.8" r="4.1" fill="#cc9c12" opacity="0.87"/>
  <circle cx="628.0" cy="68.3" r="3.6" fill="#b2a98b" opacity="0.62"/>
  <circle cx="360.5" cy="127.4" r="3.2" fill="#a7aebb" opacity="0.44"/>
  <circle cx="637.0" cy="119.3" r="3.6" fill="#9f95c2" opacity="0.63"/>
  <circle cx="670.7" cy="47.6" r="3.7" fill="#b5a77b" opacity="0.66"/>
  <circle cx="1267.6" cy="113.2" r="4.2" fill="#8a53d6" opacity="0.92"/>
  <circle cx="273.5" cy="42.9" r="3.2" fill="#a7aebb" opacity="0.42"/>
  <circle cx="598.6" cy="110.6" r="3.5" fill="#a19cc0" opacity="0.59"/>
  <circle cx="1236.1" cy="78.1" r="4.2" fill="#d09a00" opacity="0.92"/>
  <circle cx="1171.5" cy="37.9" r="4.2" fill="#0d93b3" opacity="0.92"/>
  <circle cx="117.4" cy="59.6" r="3.2" fill="#a7aebb" opacity="0.42"/>
  <circle cx="1216.8" cy="41.0" r="4.2" fill="#0d93b3" opacity="0.92"/>
  <circle cx="779.4" cy="87.4" r="3.9" fill="#9679cb" opacity="0.75"/>
  <circle cx="904.6" cy="37.2" r="4.0" fill="#2898b4" opacity="0.84"/>
  <circle cx="647.4" cy="66.9" r="3.6" fill="#b3a884" opacity="0.64"/>
  <circle cx="1213.3" cy="113.2" r="4.2" fill="#8a53d6" opacity="0.92"/>
  <circle cx="588.4" cy="72.1" r="3.5" fill="#afaa99" opacity="0.59"/>
  <circle cx="494.9" cy="14.0" r="3.4" fill="#9fadbb" opacity="0.52"/>
  <circle cx="1076.0" cy="36.6" r="4.2" fill="#0d93b3" opacity="0.92"/>
  <circle cx="522.6" cy="56.2" r="3.4" fill="#9aacba" opacity="0.54"/>
  <circle cx="916.7" cy="110.4" r="4.1" fill="#8f61d2" opacity="0.85"/>
  <circle cx="515.9" cy="133.2" r="3.4" fill="#a5a7bd" opacity="0.53"/>
  <circle cx="119.7" cy="77.0" r="3.2" fill="#a7aebb" opacity="0.42"/>
  <circle cx="375.4" cy="10.0" r="3.3" fill="#a7aebb" opacity="0.45"/>
  <circle cx="1069.0" cy="73.7" r="4.2" fill="#d09a00" opacity="0.91"/>
  <circle cx="1239.7" cy="73.6" r="4.2" fill="#d09a00" opacity="0.92"/>
  <circle cx="663.7" cy="42.3" r="3.7" fill="#74a5b8" opacity="0.65"/>
  <circle cx="559.5" cy="10.0" r="3.5" fill="#92aaba" opacity="0.56"/>
  <circle cx="1040.6" cy="105.6" r="4.2" fill="#8a54d6" opacity="0.91"/>
  <circle cx="717.8" cy="55.3" r="3.8" fill="#63a2b7" opacity="0.70"/>
  <circle cx="924.9" cy="44.1" r="4.1" fill="#2397b4" opacity="0.85"/>
  <circle cx="793.9" cy="33.3" r="3.9" fill="#499eb6" opacity="0.76"/>
  <circle cx="830.9" cy="53.6" r="3.9" fill="#c3a03b" opacity="0.79"/>
  <circle cx="712.7" cy="40.9" r="3.7" fill="#64a2b8" opacity="0.69"/>
  <circle cx="615.2" cy="72.1" r="3.6" fill="#b1a98f" opacity="0.61"/>
  <circle cx="948.9" cy="116.4" r="4.1" fill="#8d5dd3" opacity="0.87"/>
  <circle cx="349.7" cy="114.2" r="3.2" fill="#a7aebb" opacity="0.44"/>
  <circle cx="861.4" cy="47.9" r="4.0" fill="#349ab5" opacity="0.81"/>
  <circle cx="233.5" cy="67.6" r="3.2" fill="#a7aebb" opacity="0.42"/>
  <circle cx="1040.4" cy="114.1" r="4.2" fill="#8a54d6" opacity="0.91"/>
  <circle cx="299.5" cy="105.5" r="3.2" fill="#a7aebb" opacity="0.42"/>
  <circle cx="198.8" cy="37.3" r="3.2" fill="#a7aebb" opacity="0.42"/>
  <circle cx="329.6" cy="31.4" r="3.2" fill="#a7aebb" opacity="0.43"/>
  <circle cx="323.4" cy="85.1" r="3.2" fill="#a7aebb" opacity="0.43"/>
  <circle cx="1037.3" cy="42.9" r="4.2" fill="#0f93b3" opacity="0.91"/>
  <circle cx="540.8" cy="51.5" r="3.5" fill="#abaca7" opacity="0.55"/>
  <circle cx="957.8" cy="34.4" r="4.1" fill="#1b96b4" opacity="0.87"/>
  <circle cx="101.7" cy="92.9" r="3.2" fill="#a7aebb" opacity="0.42"/>
  <circle cx="743.0" cy="86.1" r="3.8" fill="#bba45e" opacity="0.72"/>
  <circle cx="812.3" cy="46.8" r="3.9" fill="#439db6" opacity="0.77"/>
</svg>
